<svg width="26" height="26" viewBox="0 0 26 26" fill="none" xmlns="http://www.w3.org/2000/svg">
<g opacity="0.75">
<path d="M13.8667 19.7393V19.0665C13.8667 17.6778 14.4075 16.3729 15.3898 15.3901L17.3517 13.4281C18.639 14.1423 20.2877 13.9671 21.3812 12.8738C23.1534 11.1021 23.7789 8.54765 23.177 6.28954C20.9189 5.68738 18.3639 6.3119 16.5918 8.08406C15.466 9.20987 15.3084 10.9274 16.0983 12.2298L14.1644 14.1642C14.0305 14.2981 13.9062 14.4392 13.7835 14.583C13.5617 13.0766 12.8626 11.7248 11.8351 10.6976L11.4321 10.2943C12.5103 8.68493 12.341 6.48818 10.9191 5.06728C8.7525 2.90122 5.63094 2.13552 2.87208 2.87184C2.13576 5.63122 2.8999 8.75486 5.06596 10.9207C6.45566 12.3109 8.58584 12.497 10.183 11.4971L10.6097 11.9232C11.5922 12.9058 12.133 14.211 12.133 15.5999V19.743C8.83752 19.8511 5.60702 20.5529 2.59986 21.7985L3.26338 23.3999C9.54134 20.7981 16.4586 20.7973 22.7371 23.3955L23.3999 21.7944C20.2775 20.5019 17.054 19.8402 13.8667 19.7393ZM17.8171 9.30996C18.7771 8.35056 20.1059 7.79988 21.4634 7.79988C21.5305 7.79988 21.5981 7.8017 21.6649 7.80431C21.7242 9.21169 21.1865 10.6172 20.1556 11.6481C19.8433 11.9607 19.4278 12.133 18.9861 12.133C18.5451 12.133 18.1294 11.9607 17.8171 11.6484C17.5049 11.3364 17.3333 10.9214 17.3333 10.4797C17.3333 10.038 17.5049 9.62222 17.8171 9.30996ZM9.69396 9.69581C9.24052 10.15 8.63602 10.3999 7.99278 10.3999C7.35032 10.3999 6.74608 10.15 6.2916 9.69555C4.86966 8.27361 4.1726 6.30228 4.3585 4.36112C4.55974 4.34266 4.7615 4.3333 4.96456 4.3333C6.72502 4.3333 8.44804 5.04752 9.6937 6.29344C10.6318 7.23127 10.6318 8.75773 9.69396 9.69581Z" fill="white"/>
</g>
</svg>
