<?xml version="1.0" standalone="no"?>
<!DOCTYPE svg PUBLIC "-//W3C//DTD SVG 20010904//EN"
 "http://www.w3.org/TR/2001/REC-SVG-20010904/DTD/svg10.dtd">
<svg version="1.0" xmlns="http://www.w3.org/2000/svg"
 width="200.000000pt" height="200.000000pt" viewBox="0 0 200.000000 200.000000"
 preserveAspectRatio="xMidYMid meet">

<g transform="translate(0.000000,200.000000) scale(0.100000,-0.100000)"
fill="#000000" stroke="none">
<path d="M937 1851 c-70 -75 -142 -196 -180 -304 -6 -16 -9 -15 -31 10 -18 20
-28 25 -36 17 -12 -11 -45 -175 -55 -269 -3 -33 -8 -80 -11 -104 l-6 -43 -28
33 c-22 26 -31 31 -40 22 -22 -21 34 -449 86 -651 43 -171 97 -255 201 -314
49 -28 53 -33 53 -67 0 -59 31 -81 111 -81 79 0 109 23 109 82 0 33 4 39 53
66 134 76 191 199 246 532 19 118 51 375 51 413 0 26 -35 21 -55 -9 -9 -14
-19 -24 -21 -21 -3 3 -10 49 -15 103 -13 126 -45 294 -59 308 -8 8 -18 3 -35
-16 -27 -31 -35 -34 -35 -15 0 20 -76 172 -112 225 -48 70 -108 132 -128 132
-9 0 -38 -22 -63 -49z m123 -58 c57 -76 137 -230 147 -282 l6 -34 -26 19 c-14
10 -28 31 -31 47 -5 27 -13 35 -89 105 -47 41 -88 43 -125 4 -15 -15 -39 -35
-54 -44 -14 -10 -32 -34 -39 -55 -11 -33 -43 -72 -61 -73 -11 0 21 99 49 155
43 85 145 225 164 225 5 0 32 -30 59 -67z m-30 -163 c13 -8 12 -11 -5 -24 -25
-19 -30 -19 -45 -1 -23 28 15 47 50 25z m-73 -61 c16 -16 -33 -62 -58 -54 -23
8 -24 14 -3 43 16 24 43 29 61 11z m147 -11 c21 -29 20 -35 -3 -43 -25 -8 -74
38 -58 54 18 18 45 13 61 -11z m-69 -62 c9 -14 15 -37 13 -51 -3 -25 -7 -27
-50 -29 -47 -2 -48 -1 -48 29 0 66 54 98 85 51z m-301 -56 c-4 -14 -7 -49 -6
-77 0 -29 0 -60 0 -68 0 -8 0 -40 0 -70 0 -30 1 -61 1 -67 1 -7 -1 -34 -5 -59
-4 -28 -2 -54 5 -68 20 -37 -3 -22 -38 26 l-34 46 7 86 c8 101 35 291 43 305
11 18 34 -28 27 -54z m580 -55 c8 -55 18 -141 22 -191 l6 -92 -33 -45 c-34
-46 -59 -63 -43 -29 5 9 8 38 7 65 -1 26 -2 56 -2 67 0 11 0 43 0 70 0 28 0
58 -1 68 0 9 2 32 6 50 4 19 1 50 -6 72 -10 29 -10 42 0 60 18 34 27 15 44
-95z m-416 83 c5 -7 12 -30 14 -51 l3 -39 -47 -2 c-47 -2 -48 -1 -48 29 0 57
50 97 78 63z m267 -12 c9 -14 15 -37 13 -51 -3 -25 -7 -27 -51 -29 l-48 -2 7
41 c3 22 11 46 16 53 17 20 46 14 63 -12z m-382 -118 c-18 -31 -32 28 -16 69
6 14 9 8 14 -22 4 -22 5 -43 2 -47z m457 31 c0 -31 -7 -40 -26 -32 -10 4 -11
10 -4 23 6 10 10 29 10 42 0 18 2 20 10 8 5 -8 10 -27 10 -41z m-205 -13 c9
-14 15 -37 13 -51 -3 -25 -7 -27 -50 -29 -47 -2 -48 -1 -48 29 0 66 54 98 85
51z m-137 -28 c5 -7 12 -30 14 -51 l3 -39 -47 -2 c-47 -2 -48 -1 -48 29 0 57
50 97 78 63z m267 -12 c9 -14 15 -37 13 -51 -3 -25 -7 -27 -51 -29 l-48 -2 7
41 c3 22 11 46 16 53 17 20 46 14 63 -12z m-382 -118 c-18 -31 -32 28 -16 69
6 14 9 8 14 -22 4 -22 5 -43 2 -47z m457 31 c0 -31 -7 -40 -26 -32 -10 4 -11
10 -4 23 6 10 10 29 10 42 0 18 2 20 10 8 5 -8 10 -27 10 -41z m-205 -13 c9
-14 15 -37 13 -51 -3 -25 -7 -27 -50 -29 -47 -2 -48 -1 -48 29 0 66 54 98 85
51z m-137 -28 c5 -7 12 -30 14 -51 l3 -39 -47 -2 c-47 -2 -48 -1 -48 29 0 57
50 97 78 63z m267 -12 c9 -14 15 -37 13 -51 -3 -25 -7 -27 -51 -29 l-48 -2 7
41 c3 22 11 46 16 53 17 20 46 14 63 -12z m-382 -118 c-18 -31 -32 28 -16 69
6 14 9 8 14 -22 4 -22 5 -43 2 -47z m457 31 c0 -31 -7 -40 -26 -32 -10 4 -11
10 -4 23 6 10 10 29 10 42 0 18 2 20 10 8 5 -8 10 -27 10 -41z m-543 -107
c106 -149 168 -293 234 -550 46 -182 48 -196 17 -187 -115 35 -200 110 -237
210 -45 119 -98 392 -115 595 l-7 75 23 -29 c13 -16 51 -67 85 -114z m709 71
c-25 -245 -83 -527 -130 -628 -38 -83 -130 -157 -218 -179 -37 -9 -37 -1 11
186 55 213 111 362 179 468 40 63 154 220 160 220 2 0 1 -30 -2 -67z m-371 23
c9 -14 15 -37 13 -51 -3 -25 -7 -27 -50 -29 -47 -2 -48 -1 -48 29 0 66 54 98
85 51z m-137 -28 c5 -7 12 -30 14 -51 l3 -39 -47 -2 c-47 -2 -48 -1 -48 29 0
57 50 97 78 63z m267 -12 c9 -14 15 -37 13 -51 -3 -25 -7 -27 -51 -29 l-48 -2
7 41 c3 22 11 46 16 53 17 20 46 14 63 -12z m-383 -71 c2 -19 3 -35 1 -35 -9
0 -22 41 -17 54 9 23 11 20 16 -19z m444 -21 c-19 -29 -31 -32 -16 -5 5 11 10
30 10 43 1 21 2 21 11 5 8 -14 7 -24 -5 -43z m-191 -8 c9 -14 15 -37 13 -51
-3 -25 -7 -27 -50 -29 -47 -2 -48 -1 -48 29 0 66 54 98 85 51z m-137 -28 c12
-16 20 -82 10 -85 -5 -2 -22 -3 -38 -3 -23 0 -33 6 -42 25 -21 46 39 100 70
63z m268 -13 c22 -34 6 -75 -30 -75 -13 0 -32 -3 -41 -7 -15 -5 -16 -1 -10 38
4 24 12 50 17 57 17 20 46 14 64 -13z m-131 -99 c9 -14 15 -37 13 -51 -3 -25
-7 -27 -50 -29 -47 -2 -48 -1 -48 29 0 66 54 98 85 51z m-138 -28 c15 -19 23
-87 12 -93 -5 -4 -9 -4 -9 -1 0 3 -9 28 -20 56 -15 39 -17 50 -6 50 7 0 18 -6
23 -12z m223 -38 c-11 -28 -20 -53 -20 -55 0 -3 -5 -5 -11 -5 -7 0 -8 14 -4
43 8 46 20 67 41 67 11 0 9 -11 -6 -50z m-85 -74 c9 -14 15 -37 13 -51 -3 -25
-7 -27 -50 -29 -47 -2 -48 -1 -48 29 0 66 54 98 85 51z m-5 -131 c9 -11 10
-27 4 -58 -8 -36 -13 -42 -34 -42 -21 0 -26 6 -34 42 -10 47 3 73 34 73 10 0
23 -7 30 -15z m-20 -165 c0 -11 -4 -20 -10 -20 -5 0 -10 9 -10 20 0 11 5 20
10 20 6 0 10 -9 10 -20z m58 -185 c-3 -30 -3 -30 -68 -30 -65 0 -65 0 -68 30
l-3 30 71 0 71 0 -3 -30z"/>
</g>
</svg>
