<svg width="18" height="25" viewBox="0 0 18 25" fill="none" xmlns="http://www.w3.org/2000/svg">
<g opacity="0.75">
<path d="M7.20558 23.2267C5.56013 23.1015 4.54 22.2642 4.28318 22.0444C4.08684 21.8787 3.89832 21.7044 3.7347 21.5486L3.43876 21.2534C2.01029 19.7367 1.55429 18.1446 1.91354 15.9314C2.06649 14.996 2.40938 14.1345 2.77219 13.2217C2.87107 12.9735 2.96996 12.7231 3.0667 12.4698C3.16986 13.1492 3.23673 13.7994 3.26091 14.271L3.37331 16.4536L4.56703 14.6225C5.99764 12.4278 7.22336 7.86425 7.41259 4.52854C7.4567 3.73178 7.36066 2.98055 7.04552 2.01519C6.73037 1.04984 5.7892 1.21132 5.7892 1.21132L5.96705 2.70595C6.23311 4.94399 5.47832 8.94841 4.39132 11.7648C4.22556 10.8215 4.08115 10.2147 3.90757 9.40157C3.61803 8.04637 2.68469 7.22329 2.68469 7.22329C2.68469 7.22329 2.70674 8.06842 2.48479 9.42433C2.2607 10.7895 1.88224 11.6104 1.45042 12.6974C1.07623 13.64 0.688522 14.6146 0.509963 15.7038C0.0767258 18.3679 0.660779 20.3805 2.4172 22.245L2.74089 22.568C2.93439 22.7537 3.14567 22.9472 3.36193 23.13C3.79517 23.4999 5.09204 24.4937 7.09745 24.646C7.11594 24.6474 7.13444 24.6481 7.15222 24.6481C7.52073 24.6481 7.83232 24.3643 7.86077 23.9908C7.89065 23.5981 7.59684 23.2566 7.20558 23.2267Z" fill="white"/>
<path d="M16.6982 12.4437C16.0665 9.58671 14.468 7.33444 13.9999 6.79877C13.1192 5.71887 12.378 5.53391 12.378 5.53391C12.378 5.53391 12.7927 6.49002 12.8589 7.57347C12.925 8.65692 12.7529 9.03111 12.3822 9.97797C12.0856 8.95713 10.5554 5.71105 9.48828 4.08837C8.48024 2.55603 7.05461 0.917695 5.58203 0C5.61547 0.35285 5.8111 1.31963 5.84453 1.6675C8.27394 4.13034 10.9666 9.82432 11.4304 12.046L11.7185 13.4247L12.6575 12.3747C13.1285 11.8482 13.7396 10.6068 14.0711 9.39179C14.5221 10.2433 15.0108 11.3993 15.3096 12.751C15.8026 14.9805 15.8552 18.2408 13.307 21.1105C12.8631 21.6114 11.9006 23.1138 9.92152 23.2262C9.52883 23.249 9.22934 23.5848 9.25139 23.9767C9.27273 24.3552 9.58645 24.6476 9.96136 24.6476C9.97487 24.6476 9.9891 24.6476 10.0026 24.6469C11.7078 24.5494 12.9207 23.6908 14.3713 22.0546C17.3171 18.7366 17.2631 14.9968 16.6982 12.4437Z" fill="white"/>
</g>
</svg>
