<svg width="24" height="19" viewBox="0 0 24 19" fill="none" xmlns="http://www.w3.org/2000/svg">
<g opacity="0.75">
<path d="M4.74513 4.86983C6.13341 4.86983 7.45121 4.3048 8.40959 3.34156C9.3681 4.30492 10.6858 4.86983 12.074 4.86983C13.4626 4.86983 14.7801 4.30504 15.738 3.34194C16.6964 4.30504 18.0139 4.86983 19.4025 4.86983C21.2397 4.86983 22.9529 3.88049 23.8738 2.28808C24.1315 1.84226 23.9791 1.27188 23.5332 1.01417C23.0874 0.756701 22.5171 0.908869 22.2593 1.35468C21.6709 2.37261 20.5762 3.00503 19.4026 3.00503C18.2288 3.00503 17.1337 2.37261 16.5453 1.35468C16.3786 1.06651 16.0709 0.888853 15.738 0.888977C15.405 0.888977 15.0974 1.06663 14.9308 1.35493C14.3428 2.37286 13.2483 3.00503 12.0743 3.00503C10.9008 3.00503 9.80583 2.37249 9.21655 1.35431C9.04984 1.06626 8.74227 0.888853 8.40959 0.888853H8.40934C8.07654 0.888853 7.76897 1.06638 7.60238 1.35456C7.01397 2.37249 5.91921 3.0049 4.7455 3.0049C3.57167 3.0049 2.47666 2.37249 1.88826 1.35456C1.63054 0.908869 1.06016 0.756204 0.614349 1.01404C0.168537 1.27176 0.0159965 1.84214 0.273836 2.28795C1.19418 3.88049 2.90756 4.86983 4.74513 4.86983Z" fill="white"/>
<path d="M23.5332 7.85209C23.0874 7.59462 22.5171 7.74666 22.2593 8.1926C21.6709 9.21053 20.5762 9.84295 19.4026 9.84295C18.2288 9.84295 17.1337 9.21053 16.5453 8.1926C16.3786 7.90442 16.0709 7.72677 15.738 7.7269C15.405 7.7269 15.0974 7.90455 14.9308 8.19285C14.3428 9.21078 13.2483 9.84295 12.0743 9.84295C10.9008 9.84295 9.80583 9.21041 9.21655 8.19223C9.04984 7.90418 8.74227 7.72677 8.40959 7.72677H8.40934C8.07654 7.72677 7.76897 7.9043 7.60238 8.19247C7.01397 9.21041 5.91921 9.84282 4.7455 9.84282C3.57167 9.84282 2.47666 9.21041 1.88826 8.19247C1.63054 7.74666 1.06016 7.59412 0.614349 7.85196C0.168537 8.10968 0.0159965 8.68006 0.273836 9.12587C1.19455 10.7184 2.90793 11.7077 4.74563 11.7077C6.13391 11.7077 7.4517 11.1427 8.41009 10.1795C9.36859 11.1428 10.6863 11.7077 12.0745 11.7077C13.4631 11.7077 14.7806 11.143 15.7385 10.1799C16.6969 11.143 18.0144 11.7077 19.403 11.7077C21.2402 11.7077 22.9534 10.7185 23.8743 9.12587C24.1315 8.68018 23.9791 8.1098 23.5332 7.85209Z" fill="white"/>
<path d="M23.5332 14.6899C23.0874 14.4323 22.5171 14.5845 22.2593 15.0304C21.6709 16.0484 20.5762 16.6808 19.4026 16.6808C18.2288 16.6808 17.1337 16.0484 16.5453 15.0304C16.3786 14.7423 16.0709 14.5646 15.738 14.5647C15.405 14.5647 15.0974 14.7424 14.9308 15.0307C14.3428 16.0486 13.2483 16.6808 12.0743 16.6808C10.9008 16.6808 9.80583 16.0482 9.21655 15.0301C9.04984 14.742 8.74227 14.5646 8.40959 14.5646H8.40934C8.07654 14.5646 7.76897 14.7421 7.60238 15.0303C7.01397 16.0482 5.91921 16.6807 4.7455 16.6807C3.57167 16.6807 2.47666 16.0482 1.88826 15.0303C1.63054 14.5845 1.06016 14.4321 0.614349 14.6898C0.168537 14.9475 0.0159965 15.5179 0.273836 15.9637C1.19455 17.5562 2.90793 18.5456 4.74563 18.5456C6.13391 18.5456 7.4517 17.9805 8.41009 17.0173C9.36859 17.9807 10.6863 18.5456 12.0745 18.5456C13.4631 18.5456 14.7806 17.9808 15.7385 17.0177C16.6969 17.9808 18.0144 18.5456 19.403 18.5456C21.2402 18.5456 22.9534 17.5562 23.8743 15.9637C24.1315 15.518 23.9791 14.9476 23.5332 14.6899Z" fill="white"/>
</g>
</svg>
