<svg width="24" height="24" viewBox="0 0 24 24" fill="none" xmlns="http://www.w3.org/2000/svg">
<path fill-rule="evenodd" clip-rule="evenodd" d="M12 23C5.92487 23 1 18.0751 1 12C1 5.92487 5.92487 1 12 1C18.0751 1 23 5.92487 23 12C23 18.0751 18.0751 23 12 23ZM12 21C16.9706 21 21 16.9706 21 12C21 7.02944 16.9706 3 12 3C7.02944 3 3 7.02944 3 12C3 16.9706 7.02944 21 12 21ZM12.0003 16.9983C11.4479 16.9983 11 16.5506 11 15.9983C11 15.4461 11.4479 14.9983 12.0003 14.9983C12.5528 14.9983 13.0007 15.4461 13.0007 15.9983C13.0007 16.5506 12.5528 16.9983 12.0003 16.9983ZM13 14H11C11 12.2984 11.6246 11.5697 13.0528 10.8556C13.8746 10.4447 14 10.2984 14 9.5C14 8.55641 13.2772 8 12 8C10.8954 8 10 8.89543 10 10H8C8 7.79086 9.79086 6 12 6C14.2843 6 16 7.32063 16 9.5C16 11.2016 15.3754 11.9303 13.9472 12.6444C13.1254 13.0553 13 13.2016 13 14Z" fill="white"/>
</svg>
