<svg width="42" height="42" viewBox="0 0 42 42" fill="none" xmlns="http://www.w3.org/2000/svg">
<circle cx="21" cy="21" r="20.58" stroke="white" stroke-width="0.84"/>
<path d="M13.3812 26.1031C12.3127 26.1031 11.3954 25.8763 10.6294 25.4227C9.86328 24.959 9.2736 24.3189 8.86032 23.5024C8.44704 22.6759 8.2404 21.7233 8.2404 20.6448C8.2404 19.5662 8.44704 18.6136 8.86032 17.7871C9.2736 16.9605 9.86328 16.3154 10.6294 15.8517C11.3954 15.388 12.3127 15.1562 13.3812 15.1562C14.6513 15.1562 15.6895 15.4737 16.4959 16.1087C17.3124 16.7337 17.8214 17.6157 18.023 18.7547H15.8911C15.7601 18.1802 15.4778 17.7316 15.0444 17.4091C14.621 17.0764 14.0566 16.9101 13.351 16.9101C12.3732 16.9101 11.6071 17.2427 11.0527 17.908C10.4983 18.5733 10.2211 19.4855 10.2211 20.6448C10.2211 21.804 10.4983 22.7162 11.0527 23.3815C11.6071 24.0367 12.3732 24.3643 13.351 24.3643C14.0566 24.3643 14.621 24.2131 15.0444 23.9107C15.4778 23.5982 15.7601 23.1698 15.8911 22.6255H18.023C17.8214 23.7141 17.3124 24.5659 16.4959 25.1808C15.6895 25.7956 14.6513 26.1031 13.3812 26.1031ZM18.9229 25.9216L22.7936 15.3376H24.9709L28.8416 25.9216H26.7853L25.9386 23.4722H21.8108L20.949 25.9216H18.9229ZM22.34 21.9602H25.4094L23.8672 17.5603L22.34 21.9602ZM30.205 25.9216V15.3376H32.1404V25.9216H30.205Z" fill="white"/>
</svg>
