<svg width="20" height="20" viewBox="0 0 20 20" fill="none" xmlns="http://www.w3.org/2000/svg">
<circle cx="10" cy="10" r="9.8" stroke="#69ABE4" stroke-width="0.4"/>
<path d="M6.37173 12.2865C5.86293 12.2865 5.42613 12.1785 5.06133 11.9625C4.69653 11.7417 4.41573 11.4369 4.21893 11.0481C4.02213 10.6545 3.92373 10.2009 3.92373 9.68733C3.92373 9.17373 4.02213 8.72013 4.21893 8.32653C4.41573 7.93293 4.69653 7.62573 5.06133 7.40493C5.42613 7.18413 5.86293 7.07373 6.37173 7.07373C6.97653 7.07373 7.47093 7.22493 7.85493 7.52733C8.24373 7.82493 8.48613 8.24493 8.58213 8.78733H7.56693C7.50453 8.51373 7.37013 8.30013 7.16373 8.14653C6.96213 7.98813 6.69333 7.90893 6.35733 7.90893C5.89173 7.90893 5.52693 8.06733 5.26293 8.38413C4.99893 8.70093 4.86693 9.13533 4.86693 9.68733C4.86693 10.2393 4.99893 10.6737 5.26293 10.9905C5.52693 11.3025 5.89173 11.4585 6.35733 11.4585C6.69333 11.4585 6.96213 11.3865 7.16373 11.2425C7.37013 11.0937 7.50453 10.8897 7.56693 10.6305H8.58213C8.48613 11.1489 8.24373 11.5545 7.85493 11.8473C7.47093 12.1401 6.97653 12.2865 6.37173 12.2865ZM9.01064 12.2001L10.8538 7.16013H11.8906L13.7338 12.2001H12.7546L12.3514 11.0337H10.3858L9.97544 12.2001H9.01064ZM10.6378 10.3137H12.0994L11.365 8.21853L10.6378 10.3137ZM14.3831 12.2001V7.16013H15.3047V12.2001H14.3831Z" fill="#69ABE4"/>
</svg>
