<svg width="32" height="32" viewBox="0 0 32 32" fill="none" xmlns="http://www.w3.org/2000/svg">
<path d="M10 20C9.64643 20 9.30729 20.1405 9.05724 20.3905C8.80719 20.6406 8.66672 20.9797 8.66672 21.3333V22.6667C8.66672 23.0203 8.80719 23.3594 9.05724 23.6095C9.30729 23.8595 9.64643 24 10 24C10.3537 24 10.6928 23.8595 10.9429 23.6095C11.1929 23.3594 11.3334 23.0203 11.3334 22.6667V21.3333C11.3334 20.9797 11.1929 20.6406 10.9429 20.3905C10.6928 20.1405 10.3537 20 10 20ZM29.3334 9.33333H27.8667C27.689 8.49801 27.3591 7.70254 26.8934 6.98666L28.0001 5.95999C28.1244 5.83568 28.223 5.68809 28.2903 5.52566C28.3575 5.36323 28.3922 5.18914 28.3922 5.01333C28.3922 4.83752 28.3575 4.66342 28.2903 4.501C28.223 4.33857 28.1244 4.19098 28.0001 4.06666C27.8757 3.94234 27.7281 3.84373 27.5657 3.77645C27.4033 3.70917 27.2292 3.67454 27.0534 3.67454C26.8776 3.67454 26.7035 3.70917 26.5411 3.77645C26.3786 3.84373 26.231 3.94234 26.1067 4.06666L25.08 5.10666C24.3474 4.62684 23.5273 4.2961 22.6667 4.13333V2.66666C22.6667 2.31304 22.5262 1.9739 22.2762 1.72385C22.0261 1.4738 21.687 1.33333 21.3334 1.33333C20.9798 1.33333 20.6406 1.4738 20.3906 1.72385C20.1405 1.9739 20.0001 2.31304 20.0001 2.66666V4.13333C19.1647 4.31105 18.3693 4.64099 17.6534 5.10666L16.6267 4.06666C16.5024 3.94234 16.3548 3.84373 16.1924 3.77645C16.03 3.70917 15.8559 3.67454 15.68 3.67454C15.5042 3.67454 15.3301 3.70917 15.1677 3.77645C15.0053 3.84373 14.8577 3.94234 14.7334 4.06666C14.4823 4.31773 14.3413 4.65826 14.3413 5.01333C14.3413 5.3684 14.4823 5.70892 14.7334 5.95999L15.7734 6.98666C15.2447 7.79205 14.8946 8.70133 14.7467 9.65333C14.0714 9.45172 13.3714 9.34404 12.6667 9.33333C10.7452 9.33223 8.88747 10.0228 7.43321 11.2787C5.97896 12.5347 5.02534 14.2721 4.74672 16.1733C3.81823 16.4319 2.99257 16.9716 2.38316 17.7183C1.77375 18.465 1.41049 19.382 1.34327 20.3435C1.27606 21.305 1.50819 22.2637 2.00778 23.0879C2.50736 23.9121 3.2499 24.5614 4.13338 24.9467C4.3033 25.014 4.48397 25.0501 4.66672 25.0533C4.97498 25.0558 5.27458 24.9515 5.51455 24.758C5.75452 24.5644 5.92003 24.2938 5.9829 23.992C6.04578 23.6902 6.00213 23.3759 5.8594 23.1027C5.71667 22.8295 5.48367 22.6141 5.20005 22.4933C4.84231 22.341 4.53756 22.0863 4.32407 21.7613C4.11057 21.4363 3.99785 21.0555 4.00005 20.6667C4.00005 20.1362 4.21076 19.6275 4.58583 19.2524C4.96091 18.8774 5.46962 18.6667 6.00005 18.6667C6.35367 18.6667 6.69281 18.5262 6.94286 18.2761C7.19291 18.0261 7.33338 17.6869 7.33338 17.3333C7.3391 16.0743 7.79008 14.8578 8.6065 13.8993C9.42292 12.9408 10.5521 12.302 11.7943 12.096C13.0364 11.8901 14.3113 12.1302 15.3934 12.774C16.4755 13.4177 17.2949 14.4235 17.7067 15.6133C17.7829 15.8424 17.9199 16.0466 18.1031 16.2039C18.2863 16.3612 18.5087 16.4659 18.7467 16.5067C19.366 16.5984 19.9429 16.8758 20.4011 17.3024C20.8594 17.7289 21.1774 18.2844 21.3132 18.8956C21.449 19.5067 21.3962 20.1447 21.1618 20.7251C20.9273 21.3056 20.5222 21.8013 20.0001 22.1467C19.853 22.243 19.7263 22.3673 19.6273 22.5125C19.5282 22.6578 19.4588 22.8211 19.4229 22.9932C19.387 23.1653 19.3853 23.3428 19.418 23.5156C19.4507 23.6883 19.5171 23.8529 19.6134 24C19.8079 24.297 20.1124 24.5046 20.46 24.5772C20.6321 24.6131 20.8096 24.6147 20.9823 24.582C21.155 24.5494 21.3196 24.483 21.4667 24.3867C22.253 23.8522 22.8955 23.1322 23.3373 22.2903C23.7792 21.4485 24.0068 20.5107 24.0001 19.56C23.9959 18.6723 23.7907 17.7971 23.4 17C23.9691 16.8134 24.5115 16.5534 25.0134 16.2267L26.0401 17.2667C26.1602 17.4063 26.3081 17.5196 26.4742 17.5993C26.6404 17.679 26.8213 17.7233 27.0054 17.7296C27.1896 17.7359 27.3731 17.7039 27.5443 17.6357C27.7155 17.5675 27.8706 17.4645 28.0001 17.3333C28.125 17.2094 28.2242 17.0619 28.2919 16.8994C28.3596 16.7369 28.3945 16.5627 28.3945 16.3867C28.3945 16.2106 28.3596 16.0364 28.2919 15.8739C28.2242 15.7114 28.125 15.5639 28.0001 15.44L26.9601 14.4133C27.4164 13.6755 27.7244 12.8558 27.8667 12H29.3334C29.687 12 30.0261 11.8595 30.2762 11.6095C30.5262 11.3594 30.6667 11.0203 30.6667 10.6667C30.6667 10.313 30.5262 9.9739 30.2762 9.72385C30.0261 9.4738 29.687 9.33333 29.3334 9.33333ZM24.1734 13.4933C23.8007 13.8665 23.358 14.1622 22.8706 14.3636C22.3832 14.565 21.8607 14.668 21.3334 14.6667H21.2534C20.8384 14.4035 20.3899 14.1972 19.92 14.0533C19.3292 12.7772 18.4087 11.6818 17.2534 10.88C17.2534 10.8 17.2534 10.7467 17.2534 10.6667C17.2508 9.60806 17.6679 8.5916 18.4134 7.83999C19.1802 7.11809 20.1936 6.71609 21.2467 6.71609C22.2999 6.71609 23.3133 7.11809 24.08 7.83999C24.453 8.21161 24.7488 8.65318 24.9507 9.13939C25.1526 9.62559 25.2565 10.1469 25.2565 10.6733C25.2565 11.1998 25.1526 11.7211 24.9507 12.2073C24.7488 12.6935 24.453 13.135 24.08 13.5067L24.1734 13.4933ZM10 26.6667C9.64643 26.6667 9.30729 26.8071 9.05724 27.0572C8.80719 27.3072 8.66672 27.6464 8.66672 28V29.3333C8.66672 29.6869 8.80719 30.0261 9.05724 30.2761C9.30729 30.5262 9.64643 30.6667 10 30.6667C10.3537 30.6667 10.6928 30.5262 10.9429 30.2761C11.1929 30.0261 11.3334 29.6869 11.3334 29.3333V28C11.3334 27.6464 11.1929 27.3072 10.9429 27.0572C10.6928 26.8071 10.3537 26.6667 10 26.6667ZM15.3334 25.3333C14.9798 25.3333 14.6406 25.4738 14.3906 25.7238C14.1405 25.9739 14 26.313 14 26.6667V28C14 28.3536 14.1405 28.6928 14.3906 28.9428C14.6406 29.1929 14.9798 29.3333 15.3334 29.3333C15.687 29.3333 16.0261 29.1929 16.2762 28.9428C16.5262 28.6928 16.6667 28.3536 16.6667 28V26.6667C16.6667 26.313 16.5262 25.9739 16.2762 25.7238C16.0261 25.4738 15.687 25.3333 15.3334 25.3333ZM15.3334 18.6667C14.9798 18.6667 14.6406 18.8071 14.3906 19.0572C14.1405 19.3072 14 19.6464 14 20V21.3333C14 21.6869 14.1405 22.0261 14.3906 22.2761C14.6406 22.5262 14.9798 22.6667 15.3334 22.6667C15.687 22.6667 16.0261 22.5262 16.2762 22.2761C16.5262 22.0261 16.6667 21.6869 16.6667 21.3333V20C16.6667 19.6464 16.5262 19.3072 16.2762 19.0572C16.0261 18.8071 15.687 18.6667 15.3334 18.6667Z" fill="#565656"/>
</svg>
