<svg width="32" height="32" viewBox="0 0 32 32" fill="none" xmlns="http://www.w3.org/2000/svg">
<path d="M17.0669 24.2946V23.4665C17.0669 21.7574 17.7325 20.1513 18.9415 18.9417L21.3562 16.527C22.9405 17.406 24.9696 17.1903 26.3155 15.8447C28.4967 13.6642 29.2666 10.5202 28.5258 7.74104C25.7466 6.99992 22.6019 7.76856 20.4208 9.94968C19.0352 11.3353 18.8413 13.4492 19.8135 15.0521L17.4333 17.4329C17.2685 17.5977 17.1155 17.7714 16.9645 17.9484C16.6915 16.0943 15.8311 14.4306 14.5664 13.1663L14.0704 12.67C15.3975 10.6892 15.1891 7.98552 13.4391 6.23672C10.7725 3.5708 6.93058 2.6284 3.53506 3.53464C2.62882 6.9308 3.5693 10.7753 6.23522 13.4409C7.94562 15.1519 10.5674 15.381 12.5331 14.1503L13.0583 14.6748C14.2675 15.8841 14.9331 17.4905 14.9331 19.1999V24.2991C10.8771 24.4322 6.90114 25.2959 3.20002 26.829L4.01666 28.7999C11.7434 25.5977 20.257 25.5967 27.9843 28.7945L28.8 26.8239C24.9571 25.2332 20.9898 24.4188 17.0669 24.2946ZM21.929 11.4585C23.1104 10.2777 24.7459 9.59992 26.4167 9.59992C26.4992 9.59992 26.5824 9.60216 26.6647 9.60536C26.7376 11.3375 26.0759 13.0674 24.8071 14.3362C24.4227 14.7209 23.9114 14.933 23.3677 14.933C22.825 14.933 22.3133 14.7209 21.929 14.3366C21.5447 13.9526 21.3335 13.4418 21.3335 12.8982C21.3335 12.3545 21.5447 11.8428 21.929 11.4585ZM11.9312 11.9334C11.3731 12.4924 10.6291 12.7999 9.83746 12.7999C9.04674 12.7999 8.30306 12.4924 7.7437 11.933C5.99362 10.183 5.1357 7.75672 5.3645 5.3676C5.61218 5.34488 5.8605 5.33336 6.11042 5.33336C8.27714 5.33336 10.3978 6.2124 11.9309 7.74584C13.0855 8.90008 13.0855 10.7788 11.9312 11.9334Z" fill="#565656"/>
</svg>
