<svg width="32" height="32" viewBox="0 0 32 32" fill="none" xmlns="http://www.w3.org/2000/svg">
<path fill-rule="evenodd" clip-rule="evenodd" d="M4.07328 14.6667C4.68814 9.10451 9.10455 4.6881 14.6667 4.07323V1.33333H17.3334V4.07323C22.8955 4.6881 27.3119 9.10451 27.9268 14.6667H30.6667V17.3333H27.9268C27.3119 22.8955 22.8955 27.3119 17.3334 27.9268V30.6667H14.6667V27.9268C9.10455 27.3119 4.68814 22.8955 4.07328 17.3333H1.33337V14.6667H4.07328ZM6.76123 14.6667H9.33337V17.3333H6.76123C7.34591 21.4209 10.5791 24.6541 14.6667 25.2388V22.6667H17.3334V25.2388C21.421 24.6541 24.6542 21.4209 25.2389 17.3333H22.6667V14.6667H25.2389C24.6542 10.5791 21.421 7.34586 17.3334 6.76118V9.33333H14.6667V6.76118C10.5791 7.34586 7.34591 10.5791 6.76123 14.6667ZM16 18.6667C14.5273 18.6667 13.3334 17.4728 13.3334 16C13.3334 14.5272 14.5273 13.3333 16 13.3333C17.4728 13.3333 18.6667 14.5272 18.6667 16C18.6667 17.4728 17.4728 18.6667 16 18.6667Z" fill="#565656"/>
</svg>
