<svg width="50" height="50" viewBox="0 0 50 50" fill="none" xmlns="http://www.w3.org/2000/svg">
<path d="M15.9297 31.2177C14.6577 31.2177 13.5657 30.9477 12.6537 30.4077C11.7417 29.8557 11.0397 29.0937 10.5477 28.1217C10.0557 27.1377 9.80969 26.0037 9.80969 24.7197C9.80969 23.4357 10.0557 22.3017 10.5477 21.3177C11.0397 20.3337 11.7417 19.5657 12.6537 19.0137C13.5657 18.4617 14.6577 18.1857 15.9297 18.1857C17.4417 18.1857 18.6777 18.5637 19.6377 19.3197C20.6097 20.0637 21.2157 21.1137 21.4557 22.4697H18.9177C18.7617 21.7857 18.4257 21.2517 17.9097 20.8677C17.4057 20.4717 16.7337 20.2737 15.8937 20.2737C14.7297 20.2737 13.8177 20.6697 13.1577 21.4617C12.4977 22.2537 12.1677 23.3397 12.1677 24.7197C12.1677 26.0997 12.4977 27.1857 13.1577 27.9777C13.8177 28.7577 14.7297 29.1477 15.8937 29.1477C16.7337 29.1477 17.4057 28.9677 17.9097 28.6077C18.4257 28.2357 18.7617 27.7257 18.9177 27.0777H21.4557C21.2157 28.3737 20.6097 29.3877 19.6377 30.1197C18.6777 30.8517 17.4417 31.2177 15.9297 31.2177ZM22.527 31.0017L27.135 18.4017H29.727L34.335 31.0017H31.887L30.879 28.0857H25.965L24.939 31.0017H22.527ZM26.595 26.2857H30.249L28.413 21.0477L26.595 26.2857ZM35.9581 31.0017V18.4017H38.2621V31.0017H35.9581Z" fill="#646464"/>
<circle cx="25" cy="25" r="24.5" stroke="#515154"/>
</svg>
