<svg width="32" height="32" viewBox="0 0 32 32" fill="none" xmlns="http://www.w3.org/2000/svg">
<path fill-rule="evenodd" clip-rule="evenodd" d="M26.6666 10.6667V5.33333H5.33329V10.6667H26.6666ZM26.6666 21.3333H5.33329V26.6667H26.6666V21.3333ZM5.33329 2.66666H26.6666C28.1394 2.66666 29.3333 3.86057 29.3333 5.33333V26.6667C29.3333 28.1394 28.1394 29.3333 26.6666 29.3333H5.33329C3.86053 29.3333 2.66663 28.1394 2.66663 26.6667V5.33333C2.66663 3.86057 3.86053 2.66666 5.33329 2.66666ZM5.33329 13.3333V18.6667H26.6666V13.3333H5.33329ZM10.6666 14.6667H20V17.3333H10.6666V14.6667ZM22.6666 9.33333C21.9302 9.33333 21.3333 8.73638 21.3333 8C21.3333 7.26362 21.9302 6.66666 22.6666 6.66666C23.403 6.66666 24 7.26362 24 8C24 8.73638 23.403 9.33333 22.6666 9.33333ZM22.6666 17.3333C21.9302 17.3333 21.3333 16.7364 21.3333 16C21.3333 15.2636 21.9302 14.6667 22.6666 14.6667C23.403 14.6667 24 15.2636 24 16C24 16.7364 23.403 17.3333 22.6666 17.3333ZM22.6666 25.3333C21.9302 25.3333 21.3333 24.7364 21.3333 24C21.3333 23.2636 21.9302 22.6667 22.6666 22.6667C23.403 22.6667 24 23.2636 24 24C24 24.7364 23.403 25.3333 22.6666 25.3333Z" fill="#565656"/>
</svg>
